<?xml version="1.0" encoding="utf-8"?>
<!-- Generator: Adobe Illustrator 26.5.0, SVG Export Plug-In . SVG Version: 6.00 Build 0)  -->
<svg version="1.1" id="Layer_1" xmlns="http://www.w3.org/2000/svg" xmlns:xlink="http://www.w3.org/1999/xlink" x="0px" y="0px"
	 viewBox="0 0 530.1 108.2" style="enable-background:new 0 0 530.1 108.2;" xml:space="preserve">
<style type="text/css">
	.st0{clip-path:url(#SVGID_00000121970338671861110930000008628139142711748011_);fill:#A2690C;}
</style>
<g>
	<defs>
		<rect id="SVGID_1_" y="0" width="530.1" height="108.2"/>
	</defs>
	<clipPath id="SVGID_00000074434518371820925740000016296627316081956513_">
		<use xlink:href="#SVGID_1_"  style="overflow:visible;"/>
	</clipPath>
	<path style="clip-path:url(#SVGID_00000074434518371820925740000016296627316081956513_);fill:#A2690C;" d="M101.4,186.7
		c-1.1,1.1-2.2,2.4-3.3,3.5h8c1-1.2,1.9-2.5,3-3.7c25.6-25.7,51.2-51.3,76.8-76.9c-2.1-0.4-4.2-0.9-6.2-1.3
		C153.6,134.5,127.5,160.6,101.4,186.7z"/>
	<path style="clip-path:url(#SVGID_00000074434518371820925740000016296627316081956513_);fill:#A2690C;" d="M267,28.6
		c9.4-9.5,18.8-19,28.1-28.6c-2.7,0-5.3,0-7.9,0c-0.9,1.1-1.7,2.3-2.7,3.3c-8.9,9-17.9,17.9-26.8,26.9c-26,26-52,52.1-78,78.1
		c2.1,0.5,4.2,0.9,6.2,1.3c4.2-4.2,8.5-8.5,12.7-12.7C221.4,74.1,244.2,51.4,267,28.6z"/>
	<path style="clip-path:url(#SVGID_00000074434518371820925740000016296627316081956513_);fill:#A2690C;" d="M348.1,0
		c-2.7,0-5.3,0-8,0c-1.1,1.3-2.1,2.7-3.3,4c-36.9,37-73.8,73.9-110.7,110.9c2.4,0.2,4.8,0.3,7.2,0.4
		c36.2-36.3,72.5-72.6,108.7-108.9C344.1,4.3,346.1,2.1,348.1,0z"/>
	<path style="clip-path:url(#SVGID_00000074434518371820925740000016296627316081956513_);fill:#A2690C;" d="M154.4,186.7
		c-1.1,1.1-2.2,2.4-3.3,3.5l0,0h7.9c0.9-1.1,1.7-2.3,2.7-3.3c23.8-23.9,47.7-47.8,71.5-71.7c-2.4-0.1-4.8-0.2-7.2-0.4
		C202.3,138.8,178.4,162.7,154.4,186.7z"/>
	<path style="clip-path:url(#SVGID_00000074434518371820925740000016296627316081956513_);fill:#A2690C;" d="M75,186.7
		c-1.1,1.1-2.2,2.4-3.3,3.5h7.9c0.9-1.1,1.7-2.3,2.7-3.3c26.1-26.2,52.3-52.4,78.4-78.5c-2.6,0.1-5.2,0.2-7.8,0.2
		C126.9,134.6,100.9,160.7,75,186.7z"/>
	<path style="clip-path:url(#SVGID_00000074434518371820925740000016296627316081956513_);fill:#A2690C;" d="M268.6,0
		c-2.7,0-5.3,0-8,0c-1.1,1.3-2.1,2.7-3.3,4c-34.8,34.9-69.6,69.8-104.4,104.7c2.6-0.1,5.2-0.2,7.8-0.2c34-34,67.9-68,101.9-102
		C264.6,4.3,266.6,2.1,268.6,0z"/>
	<path style="clip-path:url(#SVGID_00000074434518371820925740000016296627316081956513_);fill:#A2690C;" d="M367.9,6.9
		c2.3-2.3,4.5-4.6,6.7-6.9c-2.7,0-5.3,0-8,0c-1.1,1.3-2.1,2.7-3.3,4C326.2,41.2,289,78.4,251.9,115.6c2.6,0,5.2,0,7.8,0
		c2.5-2.5,4.9-4.9,7.4-7.4C300.7,74.5,334.3,40.7,367.9,6.9z"/>
	<path style="clip-path:url(#SVGID_00000074434518371820925740000016296627316081956513_);fill:#A2690C;" d="M251.9,115.6
		c-23.6,23.7-47.3,47.4-70.9,71c-1.1,1.1-2.2,2.4-3.3,3.5h7.9c1-1.2,1.9-2.5,3-3.7c23.7-23.7,47.3-47.3,71-71
		C257,115.6,254.4,115.7,251.9,115.6z"/>
	<path style="clip-path:url(#SVGID_00000074434518371820925740000016296627316081956513_);fill:#A2690C;" d="M127.9,186.7
		c-1.1,1.1-2.2,2.4-3.3,3.5h0h7.9c0.9-1.1,1.7-2.3,2.7-3.3c24.5-24.5,49-49.1,73.5-73.6c-2.2-0.3-4.5-0.5-6.7-0.9
		C177.4,137.2,152.7,161.9,127.9,186.7z"/>
	<path style="clip-path:url(#SVGID_00000074434518371820925740000016296627316081956513_);fill:#A2690C;" d="M321.6,0
		c-2.7,0-5.3,0-8,0c-1,1.2-1.9,2.5-3,3.6c-17.8,17.8-35.5,35.6-53.3,53.4c-18.4,18.4-36.8,36.9-55.2,55.3c2.2,0.3,4.5,0.6,6.7,0.9
		C244.4,77.6,280,42,315.6,6.3C317.6,4.2,319.6,2.1,321.6,0z"/>
	<path style="clip-path:url(#SVGID_00000074434518371820925740000016296627316081956513_);fill:#A2690C;" d="M401.1,0
		c-2.7,0-5.3,0-8,0c-1.1,1.3-2.1,2.7-3.3,4c-37,37-73.9,74.1-110.9,111.1c2.6-0.1,5.3-0.2,7.9-0.4c36-36,72-72.1,107.9-108.1
		C396.9,4.5,399,2.2,401.1,0z"/>
	<path style="clip-path:url(#SVGID_00000074434518371820925740000016296627316081956513_);fill:#A2690C;" d="M207.4,186.7
		c-1.1,1.1-2.2,2.4-3.3,3.5h7.9c1-1.2,1.9-2.5,3-3.7c18.9-19,37.8-37.9,56.7-56.9c5-5,10-10,15-15c-2.6,0.1-5.3,0.2-7.9,0.4
		C255.1,139,231.3,162.8,207.4,186.7z"/>
	<path style="clip-path:url(#SVGID_00000074434518371820925740000016296627316081956513_);fill:#A2690C;" d="M48.5,186.7
		c-1.1,1.1-2.2,2.4-3.3,3.5h8c0.9-1.1,1.7-2.3,2.7-3.3c25.9-25.9,51.8-51.9,77.7-77.8c-2.6,0-5.1,0.1-7.7,0.1
		C100,135,74.2,160.9,48.5,186.7z"/>
	<path style="clip-path:url(#SVGID_00000074434518371820925740000016296627316081956513_);fill:#A2690C;" d="M242.1,0
		c-2.7,0-5.3,0-8,0c-1.1,1.3-2.1,2.7-3.3,4c-35,35.1-70,70.2-105,105.2c2.6,0,5.1-0.1,7.7-0.1c34.2-34.2,68.4-68.5,102.6-102.7
		C238.1,4.3,240.1,2.1,242.1,0z"/>
	<path style="clip-path:url(#SVGID_00000074434518371820925740000016296627316081956513_);fill:#A2690C;" d="M267.6,179.5
		c-3.5,3.5-7,7.1-10.5,10.7h7.9c2.2-2.4,4.2-4.8,6.5-7.1c23.9-23.9,47.8-47.9,71.7-71.8c-2.7,0.1-5.4,0.3-8,0.5
		C312.7,134.4,290.1,156.9,267.6,179.5z"/>
	<path style="clip-path:url(#SVGID_00000074434518371820925740000016296627316081956513_);fill:#A2690C;" d="M454.1,0
		c-2.7,0-5.3,0-8,0c-0.9,1.1-1.7,2.3-2.7,3.3c-36.1,36.2-72.2,72.3-108.2,108.5c2.7-0.2,5.4-0.3,8-0.5
		c34.8-34.9,69.7-69.8,104.5-104.7C449.9,4.5,452,2.2,454.1,0z"/>
	<path style="clip-path:url(#SVGID_00000074434518371820925740000016296627316081956513_);fill:#A2690C;" d="M22,186.7
		c-1.1,1.1-2.2,2.4-3.3,3.5h8c0.9-1.1,1.7-2.3,2.7-3.3c25.8-25.8,51.6-51.7,77.4-77.5c-2.5,0-5.1,0-7.6,0
		C73.4,135.2,47.6,160.9,22,186.7z"/>
	<path style="clip-path:url(#SVGID_00000074434518371820925740000016296627316081956513_);fill:#A2690C;" d="M215.6,0
		c-2.6,0-5.3,0-8,0c-1.1,1.3-2.1,2.7-3.3,4c-35.1,35.2-70.2,70.3-105.3,105.5c2.5,0,5.1,0,7.6,0C141,75,175.3,40.7,209.6,6.3
		C211.6,4.3,213.6,2.1,215.6,0z"/>
	<path style="clip-path:url(#SVGID_00000074434518371820925740000016296627316081956513_);fill:#A2690C;" d="M286.9,186.7
		c-1.1,1.1-2.2,2.4-3.3,3.5l0,0h8c0.9-1.1,1.7-2.3,2.7-3.3c25.7-25.8,51.4-51.5,77.2-77.3c-2.7,0.1-5.3,0.3-8,0.4
		C338,135.6,312.4,161.1,286.9,186.7z"/>
	<path style="clip-path:url(#SVGID_00000074434518371820925740000016296627316081956513_);fill:#A2690C;" d="M480.6,0
		c-2.7,0-5.3,0-8,0c-1.1,1.3-2.1,2.7-3.4,4C434,39.3,398.8,74.7,363.5,110c2.7-0.2,5.3-0.3,8-0.4c34.4-34.4,68.7-68.9,103.1-103.3
		C476.6,4.3,478.6,2.1,480.6,0z"/>
	<path style="clip-path:url(#SVGID_00000074434518371820925740000016296627316081956513_);fill:#A2690C;" d="M390.9,109.1
		c-25.8,25.9-51.6,51.7-77.4,77.6c-1.1,1.1-2.2,2.4-3.3,3.5l0,0h8c0.9-1.1,1.7-2.3,2.7-3.3c25.9-25.9,51.7-51.8,77.6-77.7
		C395.9,109.1,393.4,109.1,390.9,109.1z"/>
	<path style="clip-path:url(#SVGID_00000074434518371820925740000016296627316081956513_);fill:#A2690C;" d="M507.1,0
		c-2.7,0-5.3,0-8,0c-1.1,1.3-2.1,2.7-3.4,4c-35,35.1-70,70.1-104.9,105.1c2.5,0,5,0,7.5,0.1c34.2-34.3,68.4-68.6,102.7-102.9
		C503.1,4.3,505.1,2.1,507.1,0z"/>
	<path style="clip-path:url(#SVGID_00000074434518371820925740000016296627316081956513_);fill:#A2690C;" d="M427.6,0L427.6,0
		c-2.7,0-5.3,0-8,0c-0.8,1-1.5,2.1-2.4,3c-36.8,36.9-73.6,73.7-110.3,110.6c2.7-0.2,5.4-0.3,8.1-0.5c35.4-35.5,70.8-71,106.3-106.4
		C423.4,4.5,425.5,2.2,427.6,0z"/>
	<path style="clip-path:url(#SVGID_00000074434518371820925740000016296627316081956513_);fill:#A2690C;" d="M267,153.6
		c-12.2,12.2-24.2,24.4-36.3,36.6h8c0.9-1.1,1.7-2.3,2.7-3.3c10.2-10.2,20.3-20.4,30.5-30.6c14.4-14.4,28.7-28.8,43.1-43.2
		c-2.7,0.2-5.4,0.3-8.1,0.5C293.6,126.9,280.3,140.3,267,153.6z"/>
	<path style="clip-path:url(#SVGID_00000074434518371820925740000016296627316081956513_);fill:#A2690C;" d="M339.9,186.7
		c-1.1,1.1-2.2,2.4-3.3,3.5h8c0.9-1.1,1.7-2.3,2.7-3.3c25.3-25.3,50.6-50.6,75.8-76c-2.3-0.3-4.6-0.5-6.8-0.8
		C390.8,135.7,365.4,161.2,339.9,186.7z"/>
	<path style="clip-path:url(#SVGID_00000074434518371820925740000016296627316081956513_);fill:#A2690C;" d="M530.1,4.4L530.1,4.4
		l0-4.4c-1.5,0-3,0-4.4,0c-1.1,1.3-2.1,2.7-3.3,4c-35.3,35.4-70.7,70.8-106,106.2c2.3,0.2,4.6,0.5,6.8,0.8
		c34.5-34.6,69.1-69.2,103.6-103.8C527.8,6.1,529,5.3,530.1,4.4z"/>
	<path style="clip-path:url(#SVGID_00000074434518371820925740000016296627316081956513_);fill:#A2690C;" d="M189.1,0
		c-2.7,0-5.3,0-8,0c-1,1.2-1.9,2.5-3,3.6c-35.2,35.3-70.4,70.6-105.6,105.8c2.5,0,5.1,0,7.6,0c34.2-34.3,68.5-68.6,102.7-102.8
		C184.9,4.5,187,2.2,189.1,0z"/>
	<path style="clip-path:url(#SVGID_00000074434518371820925740000016296627316081956513_);fill:#A2690C;" d="M3.6,178.4
		c-3.2,3.2-4,6.3-3,10.7c2.2-2.2,4.2-4.2,6.2-6.1c24.5-24.5,48.9-49,73.4-73.5c-2.5,0-5.1,0-7.6,0C49.5,132.5,26.6,155.4,3.6,178.4z
		"/>
	<path style="clip-path:url(#SVGID_00000074434518371820925740000016296627316081956513_);fill:#A2690C;" d="M530.1,31L530.1,31l0-8
		c-2.3,2.2-4.7,4.4-6.9,6.7c-27.9,27.9-55.7,55.8-83.6,83.7c2.3,0.3,4.5,0.6,6.7,0.8c26.8-26.9,53.6-53.7,80.5-80.6
		C527.8,32.7,529,31.9,530.1,31z"/>
	<path style="clip-path:url(#SVGID_00000074434518371820925740000016296627316081956513_);fill:#A2690C;" d="M366.4,186.7
		c-1.1,1.1-2.2,2.4-3.3,3.5h8c0.9-1.1,1.7-2.3,2.7-3.3c24.2-24.2,48.3-48.4,72.5-72.6c-2.2-0.2-4.5-0.5-6.7-0.8
		C415.2,137.9,390.8,162.3,366.4,186.7z"/>
	<path style="clip-path:url(#SVGID_00000074434518371820925740000016296627316081956513_);fill:#A2690C;" d="M3.6,151.8
		c-3.2,3.2-4,6.3-3,11.1c2.3-2.5,4.1-4.6,6.1-6.5c15.7-15.7,31.3-31.4,47-47c-2.5,0-5,0-7.6,0C31.9,123.5,17.7,137.7,3.6,151.8z"/>
	<path style="clip-path:url(#SVGID_00000074434518371820925740000016296627316081956513_);fill:#A2690C;" d="M162.6,0
		c-2.7,0-5.3,0-8,0c-1,1.2-1.9,2.5-3,3.6C116.5,38.9,81.3,74.2,46.1,109.4c2.5,0,5,0,7.6,0C87.9,75.2,122.1,40.9,156.2,6.6
		C158.4,4.5,160.5,2.2,162.6,0z"/>
	<path style="clip-path:url(#SVGID_00000074434518371820925740000016296627316081956513_);fill:#A2690C;" d="M392.9,186.7
		c-1.1,1.1-2.2,2.4-3.3,3.5h8c0.8-1,1.5-2.1,2.4-3c23.8-23.8,47.6-47.7,71.4-71.5c-2.5,0-5-0.1-7.4-0.1
		C440.3,139.3,416.6,163,392.9,186.7z"/>
	<path style="clip-path:url(#SVGID_00000074434518371820925740000016296627316081956513_);fill:#A2690C;" d="M530.1,57.5L530.1,57.5
		l0-8c-2.3,2.2-4.7,4.4-6.9,6.7C503.4,76,483.7,95.8,464,115.5c2.5,0.1,5,0.1,7.4,0.1c18.6-18.6,37.1-37.2,55.7-55.7
		C528,59,529.1,58.3,530.1,57.5z"/>
	<path style="clip-path:url(#SVGID_00000074434518371820925740000016296627316081956513_);fill:#A2690C;" d="M2.8,126.1
		c-3.1,3.1-3,6-2.2,9.7c2.3-2.2,4.3-4.1,6.3-6.1c6.8-6.8,13.6-13.6,20.4-20.5c-2.5,0-5.1,0-7.6,0C14,114.9,8.4,120.5,2.8,126.1z"/>
	<path style="clip-path:url(#SVGID_00000074434518371820925740000016296627316081956513_);fill:#A2690C;" d="M136.1,0
		c-2.7,0-5.3,0-8,0c-1.1,1.3-2.1,2.8-3.3,4c-35,35.1-70.1,70.2-105.2,105.3c2.5,0,5.1,0,7.6,0C61.4,75.1,95.6,40.9,129.8,6.6
		C131.9,4.5,134,2.2,136.1,0z"/>
	<path style="clip-path:url(#SVGID_00000074434518371820925740000016296627316081956513_);fill:#A2690C;" d="M490.7,115.2
		c-19.9,20-39.9,40-59.8,60c-5,5-9.9,10-14.8,15.1h8c0.7-0.9,1.3-1.9,2.1-2.7c24.3-24.3,48.5-48.6,72.8-72.9
		C496.2,114.8,493.5,115,490.7,115.2z"/>
	<path style="clip-path:url(#SVGID_00000074434518371820925740000016296627316081956513_);fill:#A2690C;" d="M527.4,86.2
		c0.8-0.8,1.8-1.4,2.7-2.1l0,0v-8c-0.7,0.5-1.4,1-2,1.6c-12.4,12.5-24.9,25-37.3,37.5c2.8-0.2,5.5-0.3,8.3-0.6
		C508.5,105.1,517.9,95.6,527.4,86.2z"/>
	<path style="clip-path:url(#SVGID_00000074434518371820925740000016296627316081956513_);fill:#A2690C;" d="M0.6,109.5
		c0.1-0.1,0.2-0.2,0.3-0.3c-0.1,0-0.2,0-0.3,0C0.6,109.3,0.6,109.4,0.6,109.5z"/>
	<path style="clip-path:url(#SVGID_00000074434518371820925740000016296627316081956513_);fill:#A2690C;" d="M102.9,6.9
		c2.3-2.3,4.5-4.6,6.7-6.9c-2.7,0-5.3,0-8,0c-1,1.2-1.9,2.5-3,3.6c-31.9,32-63.8,64-95.8,95.9c-3,3-3,5.9-2.3,9.7c0.1,0,0.2,0,0.3,0
		c0.6-0.5,1-0.9,1.4-1.2C35.8,74.3,69.4,40.6,102.9,6.9z"/>
	<path style="clip-path:url(#SVGID_00000074434518371820925740000016296627316081956513_);fill:#A2690C;" d="M530.1,110.6v-8
		c-0.8,0.6-1.6,1.2-2.3,1.9c-2.6,2.7-5.3,5.3-7.9,8c3-0.4,6.1-0.7,9.1-1.1C529.3,111.2,529.7,110.9,530.1,110.6z"/>
	<path style="clip-path:url(#SVGID_00000074434518371820925740000016296627316081956513_);fill:#A2690C;" d="M519.8,112.5
		c-12.2,12.2-24.3,24.5-36.5,36.7c-13.6,13.7-27.1,27.3-40.7,41h8c0.7-0.9,1.3-1.9,2.1-2.7c24.9-25,49.8-49.9,74.7-74.8
		c0.5-0.5,1-0.9,1.6-1.3C525.9,111.8,522.9,112.2,519.8,112.5z"/>
	<path style="clip-path:url(#SVGID_00000074434518371820925740000016296627316081956513_);fill:#A2690C;" d="M83.1,0
		c-2.1,2.2-4.2,4.5-6.4,6.6c-24.8,25-49.7,49.9-74.5,74.8c-0.4,0.4-0.9,0.8-1.7,1.5C-0.2,79-0.3,76.1,2.8,73
		C26,50,49.1,26.8,72.1,3.7c1.1-1.1,2-2.4,3.1-3.7C77.8,0,80.5,0,83.1,0z"/>
	<path style="clip-path:url(#SVGID_00000074434518371820925740000016296627316081956513_);fill:#A2690C;" d="M530.1,137.1
		c-0.7,0.5-1.5,0.9-2.1,1.5c-16.5,16.5-33,33-49.5,49.5c-0.6,0.6-1,1.4-1.5,2.1h-8c18-18.1,36-36.2,54-54.4c2.3-2.3,4.6-4.5,6.9-6.7
		L530.1,137.1L530.1,137.1z"/>
	<path style="clip-path:url(#SVGID_00000074434518371820925740000016296627316081956513_);fill:#A2690C;" d="M56.6,0
		C51.8,4.9,47,9.8,42.2,14.7c-13.2,13.4-26.5,26.7-39.8,40c-0.5,0.5-1,0.9-1.9,1.7c-1-4.5-0.2-7.6,3-10.8c14.2-13.8,28.1-28,42.1-42
		c1.1-1.1,2-2.4,3-3.6C51.3,0,54,0,56.6,0z"/>
	<path style="clip-path:url(#SVGID_00000074434518371820925740000016296627316081956513_);fill:#A2690C;" d="M530.1,163.7
		c-8.8,8.9-17.7,17.7-26.5,26.5c-2.6,0-5.3,0-8,0c11.5-11.5,23-23,34.5-34.5V163.7L530.1,163.7z"/>
	<path style="clip-path:url(#SVGID_00000074434518371820925740000016296627316081956513_);fill:#A2690C;" d="M30.1,0
		c-10,9.6-20,19.2-29.9,28.7c-0.7-3.2,0-6.4,3.3-9.5C10,13.1,16,6.4,22.2,0H30.1z"/>
	<path style="clip-path:url(#SVGID_00000074434518371820925740000016296627316081956513_);fill:#A2690C;" d="M522.1,190.2
		c2.7-2.6,5.3-5.3,8-8v8H522.1z"/>
</g>
</svg>
