<?xml version="1.0" encoding="UTF-8"?><svg id="Layer_1" xmlns="http://www.w3.org/2000/svg" xmlns:xlink="http://www.w3.org/1999/xlink" viewBox="0 0 530.1 108.2"><defs><style>.cls-1{fill:none;}.cls-2{fill:#fefdf8;}.cls-3{clip-path:url(#clippath-1);}.cls-4{clip-path:url(#clippath-2);}.cls-5{clip-path:url(#clippath-6);}.cls-6{clip-path:url(#clippath-5);}.cls-7{clip-path:url(#clippath-9);}.cls-8{clip-path:url(#clippath-21);}.cls-9{clip-path:url(#clippath-22);}.cls-10{clip-path:url(#clippath-25);}.cls-11{clip-path:url(#clippath-44);}.cls-12{clip-path:url(#clippath-40);}.cls-13{clip-path:url(#clippath-42);}.cls-14{clip-path:url(#clippath-46);}.cls-15{clip-path:url(#clippath-28);}.cls-16{clip-path:url(#clippath-26);}.cls-17{clip-path:url(#clippath-35);}.cls-18{clip-path:url(#clippath-37);}.cls-19{clip-path:url(#clippath-39);}.cls-20{clip-path:url(#clippath-33);}.cls-21{clip-path:url(#clippath-31);}.cls-22{clip-path:url(#clippath-13);}.cls-23{clip-path:url(#clippath-10);}.cls-24{clip-path:url(#clippath-15);}.cls-25{clip-path:url(#clippath-17);}.cls-26{clip-path:url(#clippath-19);}</style><clipPath id="clippath-1"><rect class="cls-1" width="530.1" height="108.2"/></clipPath><clipPath id="clippath-2"><rect class="cls-1" width="530.1" height="108.2"/></clipPath><clipPath id="clippath-5"><rect class="cls-1" width="530.1" height="108.2"/></clipPath><clipPath id="clippath-6"><rect class="cls-1" width="530.1" height="108.2"/></clipPath><clipPath id="clippath-9"><rect class="cls-1" width="530.1" height="108.2"/></clipPath><clipPath id="clippath-10"><rect class="cls-1" width="530.1" height="108.2"/></clipPath><clipPath id="clippath-13"><rect class="cls-1" width="530.1" height="108.2"/></clipPath><clipPath id="clippath-15"><rect class="cls-1" width="530.1" height="108.2"/></clipPath><clipPath id="clippath-17"><rect class="cls-1" width="530.1" height="108.2"/></clipPath><clipPath id="clippath-19"><rect class="cls-1" width="530.1" height="108.2"/></clipPath><clipPath id="clippath-21"><rect class="cls-1" width="530.1" height="108.2"/></clipPath><clipPath id="clippath-22"><rect class="cls-1" width="530.1" height="108.2"/></clipPath><clipPath id="clippath-25"><rect class="cls-1" width="530.1" height="108.2"/></clipPath><clipPath id="clippath-26"><rect class="cls-1" width="530.1" height="108.2"/></clipPath><clipPath id="clippath-28"><rect class="cls-1" width="530.1" height="108.2"/></clipPath><clipPath id="clippath-31"><rect class="cls-1" width="530.1" height="108.2"/></clipPath><clipPath id="clippath-33"><rect class="cls-1" width="530.1" height="108.2"/></clipPath><clipPath id="clippath-35"><rect class="cls-1" width="530.1" height="108.2"/></clipPath><clipPath id="clippath-37"><rect class="cls-1" width="530.1" height="108.2"/></clipPath><clipPath id="clippath-39"><rect class="cls-1" width="530.1" height="108.2"/></clipPath><clipPath id="clippath-40"><rect class="cls-1" width="530.1" height="108.2"/></clipPath><clipPath id="clippath-42"><rect class="cls-1" width="530.1" height="108.2"/></clipPath><clipPath id="clippath-44"><rect class="cls-1" width="530.1" height="108.2"/></clipPath><clipPath id="clippath-46"><rect class="cls-1" width="530.1" height="108.2"/></clipPath></defs><g class="cls-3"><path class="cls-2" d="M267,28.6c9.4-9.5,18.8-19,28.1-28.6h-7.9c-.9,1.1-1.7,2.3-2.7,3.3-8.9,9-17.9,17.9-26.8,26.9-26,26-52,52.1-78,78.1,2.1,.5,4.2,.9,6.2,1.3l12.7-12.7c22.8-22.8,45.6-45.5,68.4-68.3Z"/></g><g class="cls-4"><path class="cls-2" d="M348.1,0h-8c-1.1,1.3-2.1,2.7-3.3,4-36.9,37-73.8,73.9-110.7,110.9,2.4,.2,4.8,.3,7.2,.4,36.2-36.3,72.5-72.6,108.7-108.9,2.1-2.1,4.1-4.3,6.1-6.4Z"/></g><g class="cls-6"><path class="cls-2" d="M268.6,0h-8c-1.1,1.3-2.1,2.7-3.3,4-34.8,34.9-69.6,69.8-104.4,104.7,2.6-.1,5.2-.2,7.8-.2,34-34,67.9-68,101.9-102,2-2.2,4-4.4,6-6.5Z"/></g><g class="cls-5"><path class="cls-2" d="M367.9,6.9c2.3-2.3,4.5-4.6,6.7-6.9h-8c-1.1,1.3-2.1,2.7-3.3,4-37.1,37.2-74.3,74.4-111.4,111.6h7.8c2.5-2.5,4.9-4.9,7.4-7.4,33.6-33.7,67.2-67.5,100.8-101.3Z"/></g><g class="cls-7"><path class="cls-2" d="M321.6,0h-8c-1,1.2-1.9,2.5-3,3.6-17.8,17.8-35.5,35.6-53.3,53.4-18.4,18.4-36.8,36.9-55.2,55.3,2.2,.3,4.5,.6,6.7,.9,35.6-35.6,71.2-71.2,106.8-106.9,2-2.1,4-4.2,6-6.3Z"/></g><g class="cls-23"><path class="cls-2" d="M401.1,0h-8c-1.1,1.3-2.1,2.7-3.3,4-37,37-73.9,74.1-110.9,111.1,2.6-.1,5.3-.2,7.9-.4,36-36,72-72.1,107.9-108.1,2.2-2.1,4.3-4.4,6.4-6.6Z"/></g><g class="cls-22"><path class="cls-2" d="M242.1,0h-8c-1.1,1.3-2.1,2.7-3.3,4-35,35.1-70,70.2-105,105.2,2.6,0,5.1-.1,7.7-.1C167.7,74.9,201.9,40.6,236.1,6.4c2-2.1,4-4.3,6-6.4Z"/></g><g class="cls-24"><path class="cls-2" d="M454.1,0h-8c-.9,1.1-1.7,2.3-2.7,3.3-36.1,36.2-72.2,72.3-108.2,108.5,2.7-.2,5.4-.3,8-.5,34.8-34.9,69.7-69.8,104.5-104.7,2.2-2.1,4.3-4.4,6.4-6.6Z"/></g><g class="cls-25"><path class="cls-2" d="M215.6,0h-8c-1.1,1.3-2.1,2.7-3.3,4-35.1,35.2-70.2,70.3-105.3,105.5h7.6C141,75,175.3,40.7,209.6,6.3c2-2,4-4.2,6-6.3Z"/></g><g class="cls-26"><path class="cls-2" d="M480.6,0h-8c-1.1,1.3-2.1,2.7-3.4,4-35.2,35.3-70.4,70.7-105.7,106,2.7-.2,5.3-.3,8-.4,34.4-34.4,68.7-68.9,103.1-103.3,2-2,4-4.2,6-6.3Z"/></g><g class="cls-8"><path class="cls-2" d="M507.1,0h-8c-1.1,1.3-2.1,2.7-3.4,4-35,35.1-70,70.1-104.9,105.1,2.5,0,5,0,7.5,.1,34.2-34.3,68.4-68.6,102.7-102.9,2.1-2,4.1-4.2,6.1-6.3Z"/></g><g class="cls-9"><path class="cls-2" d="M427.6,0h-8c-.8,1-1.5,2.1-2.4,3-36.8,36.9-73.6,73.7-110.3,110.6,2.7-.2,5.4-.3,8.1-.5,35.4-35.5,70.8-71,106.3-106.4,2.1-2.2,4.2-4.5,6.3-6.7Z"/></g><g class="cls-10"><path class="cls-2" d="M530.1,4.4h0V0h-4.4c-1.1,1.3-2.1,2.7-3.3,4-35.3,35.4-70.7,70.8-106,106.2,2.3,.2,4.6,.5,6.8,.8,34.5-34.6,69.1-69.2,103.6-103.8,1-1.1,2.2-1.9,3.3-2.8Z"/></g><g class="cls-16"><path class="cls-2" d="M189.1,0h-8c-1,1.2-1.9,2.5-3,3.6-35.2,35.3-70.4,70.6-105.6,105.8h7.6C114.3,75.1,148.6,40.8,182.8,6.6c2.1-2.1,4.2-4.4,6.3-6.6Z"/></g><g class="cls-15"><path class="cls-2" d="M530.1,31h0v-8c-2.3,2.2-4.7,4.4-6.9,6.7-27.9,27.9-55.7,55.8-83.6,83.7,2.3,.3,4.5,.6,6.7,.8,26.8-26.9,53.6-53.7,80.5-80.6,1-.9,2.2-1.7,3.3-2.6Z"/></g><g class="cls-21"><path class="cls-2" d="M162.6,0h-8c-1,1.2-1.9,2.5-3,3.6C116.5,38.9,81.3,74.2,46.1,109.4h7.6C87.9,75.2,122.1,40.9,156.2,6.6c2.2-2.1,4.3-4.4,6.4-6.6Z"/></g><g class="cls-20"><path class="cls-2" d="M530.1,57.5h0v-8c-2.3,2.2-4.7,4.4-6.9,6.7-19.8,19.8-39.5,39.6-59.2,59.3,2.5,.1,5,.1,7.4,.1,18.6-18.6,37.1-37.2,55.7-55.7,.9-.9,2-1.6,3-2.4Z"/></g><g class="cls-17"><path class="cls-2" d="M136.1,0h-8c-1.1,1.3-2.1,2.8-3.3,4C89.8,39.1,54.7,74.2,19.6,109.3h7.6C61.4,75.1,95.6,40.9,129.8,6.6c2.1-2.1,4.2-4.4,6.3-6.6Z"/></g><g class="cls-18"><path class="cls-2" d="M527.4,86.2c.8-.8,1.8-1.4,2.7-2.1h0v-8c-.7,.5-1.4,1-2,1.6-12.4,12.5-24.9,25-37.3,37.5,2.8-.2,5.5-.3,8.3-.6,9.4-9.5,18.8-19,28.3-28.4Z"/></g><g class="cls-19"><path class="cls-2" d="M102.9,6.9c2.3-2.3,4.5-4.6,6.7-6.9h-8c-1,1.2-1.9,2.5-3,3.6C66.7,35.6,34.8,67.6,2.8,99.5c-3,3-3,5.9-2.3,9.7h.3c.6-.5,1-.9,1.4-1.2C35.8,74.3,69.4,40.6,102.9,6.9Z"/></g><g class="cls-12"><path class="cls-2" d="M530.1,110.6v-8c-.8,.6-1.6,1.2-2.3,1.9-2.6,2.7-5.3,5.3-7.9,8,3-.4,6.1-.7,9.1-1.1,.3-.2,.7-.5,1.1-.8Z"/></g><g class="cls-13"><path class="cls-2" d="M83.1,0c-2.1,2.2-4.2,4.5-6.4,6.6C51.9,31.6,27,56.5,2.2,81.4c-.4,.4-.9,.8-1.7,1.5-.7-3.9-.8-6.8,2.3-9.9C26,50,49.1,26.8,72.1,3.7c1.1-1.1,2-2.4,3.1-3.7h7.9Z"/></g><g class="cls-11"><path class="cls-2" d="M56.6,0c-4.8,4.9-9.6,9.8-14.4,14.7C29,28.1,15.7,41.4,2.4,54.7c-.5,.5-1,.9-1.9,1.7-1-4.5-.2-7.6,3-10.8C17.7,31.8,31.6,17.6,45.6,3.6,46.7,2.5,47.6,1.2,48.6,0c2.7,0,5.4,0,8,0Z"/></g><g class="cls-14"><path class="cls-2" d="M30.1,0C20.1,9.6,10.1,19.2,.2,28.7c-.7-3.2,0-6.4,3.3-9.5C10,13.1,16,6.4,22.2,0h7.9Z"/></g></svg>